<svg width="1535" height="1542" viewBox="0 0 1535 1542" fill="none" xmlns="http://www.w3.org/2000/svg">
<g clip-path="url(#clip0_67_5)" filter="url(#filter0_d_67_5)">
<rect width="1527" height="1534" transform="translate(4)" fill="white"/>
<rect x="4" width="1527" height="1534" fill="#2196F3"/>
<path d="M-676.804 851.557C-685.255 689.029 -629.462 529.695 -521.467 407.942C-413.471 286.189 -261.933 211.782 -99.5582 200.779C62.817 189.776 223.008 243.059 346.442 349.129C469.876 455.198 546.654 605.549 560.206 767.731C573.759 929.913 522.998 1090.92 418.88 1216.01C314.762 1341.09 165.636 1420.22 3.68706 1436.32C-158.262 1452.42 -320.048 1404.19 -446.752 1302.05C-573.457 1199.91 -654.92 1052.05 -673.56 890.371L-672.197 890.214C-653.598 1051.53 -572.315 1199.07 -445.891 1300.98C-319.467 1402.9 -158.04 1451.02 3.5513 1434.95C165.142 1418.89 313.938 1339.94 417.826 1215.13C521.713 1090.32 572.361 929.669 558.839 767.846C545.316 606.022 468.708 456.005 345.547 350.169C222.387 244.334 62.5503 191.169 -99.4654 202.148C-261.481 213.127 -412.684 287.37 -520.44 408.853C-628.197 530.336 -683.866 689.317 -675.433 851.485L-676.804 851.557Z" fill="#D9D9D9"/>
<path d="M1063.68 60.2998C1059.04 -28.9344 1089.67 -116.415 1148.96 -183.262C1208.26 -250.109 1291.46 -290.962 1380.61 -297.003C1469.76 -303.044 1557.71 -273.79 1625.48 -215.553C1693.25 -157.316 1735.4 -74.7681 1742.84 14.2763C1750.29 103.321 1722.42 191.72 1665.25 260.397C1608.09 329.073 1526.21 372.519 1437.29 381.358C1348.38 390.196 1259.55 363.719 1189.98 307.64C1120.42 251.561 1075.69 170.377 1065.46 81.6102L1066.21 81.5239C1076.42 170.094 1121.05 251.098 1190.46 307.053C1259.87 363.008 1348.5 389.427 1437.22 380.608C1525.94 371.789 1607.63 328.439 1664.67 259.915C1721.71 191.39 1749.52 103.186 1742.09 14.3391C1734.67 -74.5083 1692.61 -156.874 1624.99 -214.982C1557.37 -273.089 1469.61 -302.279 1380.66 -296.251C1291.71 -290.223 1208.69 -249.461 1149.53 -182.762C1090.36 -116.063 1059.8 -28.776 1064.43 60.2607L1063.68 60.2998Z" fill="#D9D9D9"/>
<path d="M1237 1367.19C1233.32 1296.52 1257.58 1227.25 1304.53 1174.32C1351.49 1121.38 1417.37 1089.04 1487.96 1084.25C1558.56 1079.47 1628.2 1102.63 1681.87 1148.75C1735.53 1194.86 1768.91 1260.23 1774.81 1330.74C1780.7 1401.25 1758.63 1471.25 1713.36 1525.64C1668.09 1580.02 1603.26 1614.42 1532.85 1621.42C1462.44 1628.42 1392.1 1607.45 1337.02 1563.04C1281.93 1518.64 1246.51 1454.35 1238.41 1384.06L1239 1383.99C1247.09 1454.13 1282.43 1518.27 1337.39 1562.58C1392.36 1606.89 1462.54 1627.81 1532.79 1620.83C1603.05 1613.84 1667.74 1579.52 1712.9 1525.25C1758.07 1470.99 1780.09 1401.15 1774.21 1330.79C1768.33 1260.44 1735.02 1195.21 1681.48 1149.2C1627.93 1103.19 1558.44 1080.07 1488 1084.85C1417.57 1089.62 1351.83 1121.9 1304.98 1174.71C1258.13 1227.53 1233.93 1296.65 1237.59 1367.15L1237 1367.19Z" fill="#D9D9D9"/>
<circle cx="545.5" cy="942.5" r="93.5" fill="#6CE9A6"/>
</g>
<defs>
<filter id="filter0_d_67_5" x="0" y="0" width="1535" height="1542" filterUnits="userSpaceOnUse" color-interpolation-filters="sRGB">
<feFlood flood-opacity="0" result="BackgroundImageFix"/>
<feColorMatrix in="SourceAlpha" type="matrix" values="0 0 0 0 0 0 0 0 0 0 0 0 0 0 0 0 0 0 127 0" result="hardAlpha"/>
<feOffset dy="4"/>
<feGaussianBlur stdDeviation="2"/>
<feComposite in2="hardAlpha" operator="out"/>
<feColorMatrix type="matrix" values="0 0 0 0 0 0 0 0 0 0 0 0 0 0 0 0 0 0 0.25 0"/>
<feBlend mode="normal" in2="BackgroundImageFix" result="effect1_dropShadow_67_5"/>
<feBlend mode="normal" in="SourceGraphic" in2="effect1_dropShadow_67_5" result="shape"/>
</filter>
<clipPath id="clip0_67_5">
<rect width="1527" height="1534" fill="white" transform="translate(4)"/>
</clipPath>
</defs>
</svg>
